<?xml version="1.0" encoding="utf-8"?>
<!-- Generator: Adobe Illustrator 22.0.1, SVG Export Plug-In . SVG Version: 6.00 Build 0)  -->
<svg version="1.1" id="Layer_1" xmlns="http://www.w3.org/2000/svg" xmlns:xlink="http://www.w3.org/1999/xlink" x="0px" y="0px"
	 viewBox="0 0 612 559.7" style="enable-background:new 0 0 612 559.7;" xml:space="preserve">
<style type="text/css">
	.st0{fill:#FFFFFF;}
	.st1{fill:#FF3F3E;}
</style>
<path class="st0" d="M263.5,186l136.3,78.5c23.5,13,23.5,47,0,60l-136.3,79.2c-23.5,13-52.1-3.6-52.1-30V216
	C211.4,189.6,240,173,263.5,186z"/>
<g>
	<path class="st0" d="M567.1,38.4c-24.8,0-44.9,20.1-44.9,44.9s20.1,44.9,44.9,44.9c24.8,0,44.9-20.1,44.9-44.9
		S591.9,38.4,567.1,38.4z"/>
	<path class="st0" d="M481.5,44.5c12.3,0.5,22.6-9.1,23-21.4c0.5-12.3-9.1-22.6-21.4-23s-22.6,9.1-23,21.4
		C459.6,33.7,469.2,44,481.5,44.5z"/>
	<path class="st0" d="M28.8,461.8c-14.3-0.5-26.4,10.7-26.9,25c-0.5,14.4,10.7,26.4,25,26.9s26.4-10.7,26.9-25
		C54.4,474.4,43.2,462.3,28.8,461.8z"/>
	<path class="st0" d="M285.1,30.3c-3,0.2-5.9,0.3-8.9,0.5C130.4,43.3,22.4,171.7,34.9,317.5c1.2,14.3,3.6,28.3,7,41.8
		C59,427.8,102.4,484.9,160,520.4c46.7,28.8,102.7,43.4,161.5,38.3c99-8.5,180.5-70.4,218.8-155c18.1-39.9,26.5-84.9,22.5-131.7
		C550.5,129.3,427.2,22.8,285.1,30.3z"/>
</g>
<path class="st1" d="M304.7,444.9c-22.6-9.6-45-19.1-67.4-28.9c-18.7-8.1-37.2-16.2-56-24.1c-6.9-2.9-9.3-6.9-9.3-14.1
	c0.4-29.3,0.2-58.8,0.2-88.1c0-4.8,0-9.6,0-15.2c-3.7-1.9-7.1-3.9-10.8-5.4c-19.2-8.1-38.3-16.2-57.3-24.3c-3.2-1.5-6.7-2.7-9.7-4.6
	c-13.8-8.7-14.2-27.6-0.6-36.6c2.6-1.7,5.6-2.9,8.4-4.2c64.8-27.4,129.8-54.8,194.6-82.5c6.9-2.9,12.7-3.1,19.4,0.2
	c10.5,5,21.5,9.3,32.3,14.3c2.8,1.2,5.2,3.1,7.3,4.4c0.4,3.7-1.9,4.6-3.9,5.4c-10.8,4.8-21.5,9.6-32.3,14.1
	c-45.9,19.3-91.5,38.9-136.9,58.6c-4.5,1.9-8.6,4.2-14.4,6.9c7.8,5.6,15.3,8.3,23,10.4c3,0.8,7.1-0.4,10.3-1.9
	c16.8-6.9,33.4-13.9,49.9-21c41.1-17.5,82.5-34.9,123.6-52.1c2.6-1,5-2.1,7.5-3.3c4.7-2.3,9.5-2.3,14.4,0c3.2,1.7,6.5,3.1,9.9,4.4
	c30.1,12.3,60.3,24.5,90.4,37c4.1,1.7,8.4,3.5,12.7,5c10.5,3.5,17.2,10.4,17.7,21c0.4,11.4-6.9,18.5-17.4,22.6
	c-8.8,3.5-17.4,7.3-26.3,11c-3.2,1.5-6.5,3.3-9.7,5c0,17.5,0,34.5,0,51.3c0.9,0.8,1.5,1.9,2.2,2.1c10.1,3.3,10.3,3.3,10.5,12.3
	c0.2,17.5,0,35.1,0,52.6c0,2.9-0.9,6-1.3,8.5c-9.9,2.7-11.8,2.9-24.8,1c-3.4-3.9-2.2-9.1-2.2-13.7c-0.2-30.7,0-61.5-0.2-92
	c0-4.4,1.1-8.7-1.3-12.9c-4.5-2.7-8,0.8-11.4,2.3c-37.9,15.8-75.8,31.8-113.7,47.8c-9,3.9-18.3,7.7-28.2,11.6
	c-16.8-7.3-33.8-14.5-50.6-21.8c-1.1-0.4-1.5-1.9-2.4-2.9c2.6-4.4,7.3-5.2,11.4-6.9c51.7-21.6,103.3-43,155.2-64.6
	c8.6-3.5,17.2-7.5,25.6-11c-0.2-3.9-2.8-4.2-4.7-5c-14-5.4-28-10.6-41.8-16c-5.4-2.1-10.1-2.1-15.7,0.4
	c-42.2,18.3-84.6,36.4-126.8,54.6c-12.1,5.2-23.7,11.2-35.7,16.8c-0.4,2.1-1.3,4.2-1.3,6.2c0,24.9,0,50.1,0,75
	c0,1.2,0.4,2.5,0.9,4.6c1.9,1.2,3.9,2.9,6.2,3.9c24.5,10.6,48.9,21,73.4,31.6c5.4,2.3,10.1,2.9,15.5,0.4
	c25-11.4,50.2-22.6,75.1-34.1c1.5-0.8,3-1.9,5-3.1c1.5-8.1,0.6-16.4,0.9-24.7c0.2-4.8,0.2-9.6,0.6-14.5c0.2-2.9,2.4-5,5.4-5.2
	c12.1-0.6,24.3-1.7,37,1c0.4,2.9,1.3,5.2,1.3,7.7c0.2,18.1,0,35.9,0.2,54c0,6-1.7,9.8-7.8,12.5c-40.9,18.3-81.6,36.6-122.3,54.8
	C307.7,444.3,306.9,444.3,304.7,444.9z"/>
</svg>
