<?xml version="1.0" encoding="utf-8"?>
<!-- Generator: Adobe Illustrator 22.0.1, SVG Export Plug-In . SVG Version: 6.00 Build 0)  -->
<svg version="1.1" id="Layer_1" xmlns="http://www.w3.org/2000/svg" xmlns:xlink="http://www.w3.org/1999/xlink" x="0px" y="0px"
	 viewBox="0 0 711.9 168.7" style="enable-background:new 0 0 711.9 168.7;" xml:space="preserve">
<style type="text/css">
	.st0{fill:#FF3F3E;}
	.st1{enable-background:new    ;}
	.st2{fill:#383838;}
</style>
<path class="st0" d="M114.5,163.8c-10.5-4.6-20.9-9.2-31.3-13.9c-8.7-3.9-17.3-7.8-26-11.6c-3.2-1.4-4.3-3.3-4.3-6.8
	c0.2-14.1,0.1-28.3,0.1-42.4c0-2.3,0-4.6,0-7.3c-1.7-0.9-3.3-1.9-5-2.6c-8.9-3.9-17.8-7.8-26.6-11.7c-1.5-0.7-3.1-1.3-4.5-2.2
	c-6.4-4.2-6.6-13.3-0.3-17.6c1.2-0.8,2.6-1.4,3.9-2C50.6,32.5,80.8,19.3,110.9,6c3.2-1.4,5.9-1.5,9,0.1c4.9,2.4,10,4.5,15,6.9
	c1.3,0.6,2.4,1.5,3.4,2.1c0.2,1.8-0.9,2.2-1.8,2.6c-5,2.3-10,4.6-15,6.8C100.2,33.8,79,43.2,57.9,52.7c-2.1,0.9-4,2-6.7,3.3
	c3.6,2.7,7.1,4,10.7,5c1.4,0.4,3.3-0.2,4.8-0.9c7.8-3.3,15.5-6.7,23.2-10.1c19.1-8.4,38.3-16.8,57.4-25.1c1.2-0.5,2.3-1,3.5-1.6
	c2.2-1.1,4.4-1.1,6.7,0c1.5,0.8,3,1.5,4.6,2.1c14,5.9,28,11.8,42,17.8c1.9,0.8,3.9,1.7,5.9,2.4c4.9,1.7,8,5,8.2,10.1
	c0.2,5.5-3.2,8.9-8.1,10.9c-4.1,1.7-8.1,3.5-12.2,5.3c-1.5,0.7-3,1.6-4.5,2.4c0,8.4,0,16.6,0,24.7c0.4,0.4,0.7,0.9,1,1
	c4.7,1.6,4.8,1.6,4.9,5.9c0.1,8.4,0,16.9,0,25.3c0,1.4-0.4,2.9-0.6,4.1c-4.6,1.3-5.5,1.4-11.5,0.5c-1.6-1.9-1-4.4-1-6.6
	c-0.1-14.8,0-29.6-0.1-44.3c0-2.1,0.5-4.2-0.6-6.2c-2.1-1.3-3.7,0.4-5.3,1.1c-17.6,7.6-35.2,15.3-52.8,23c-4.2,1.9-8.5,3.7-13.1,5.6
	c-7.8-3.5-15.7-7-23.5-10.5c-0.5-0.2-0.7-0.9-1.1-1.4c1.2-2.1,3.4-2.5,5.3-3.3c24-10.4,48-20.7,72.1-31.1c4-1.7,8-3.6,11.9-5.3
	c-0.1-1.9-1.3-2-2.2-2.4c-6.5-2.6-13-5.1-19.4-7.7c-2.5-1-4.7-1-7.3,0.2c-19.6,8.8-39.3,17.5-58.9,26.3c-5.6,2.5-11,5.4-16.6,8.1
	c-0.2,1-0.6,2-0.6,3c0,12,0,24.1,0,36.1c0,0.6,0.2,1.2,0.4,2.2c0.9,0.6,1.8,1.4,2.9,1.9c11.4,5.1,22.7,10.1,34.1,15.2
	c2.5,1.1,4.7,1.4,7.2,0.2c11.6-5.5,23.3-10.9,34.9-16.4c0.7-0.4,1.4-0.9,2.3-1.5c0.7-3.9,0.3-7.9,0.4-11.9c0.1-2.3,0.1-4.6,0.3-7
	c0.1-1.4,1.1-2.4,2.5-2.5c5.6-0.3,11.3-0.8,17.2,0.5c0.2,1.4,0.6,2.5,0.6,3.7c0.1,8.7,0,17.3,0.1,26c0,2.9-0.8,4.7-3.6,6
	c-19,8.8-37.9,17.6-56.8,26.4C115.9,163.5,115.5,163.5,114.5,163.8z"/>
<g class="st1">
	<path class="st2" d="M248.5,109.4l13.2-15.8c8.5,6.7,17.9,10.3,27.8,10.3c6.4,0,9.8-2.2,9.8-5.9v-0.2c0-3.6-2.8-5.5-14.5-8.2
		c-18.3-4.2-32.4-9.3-32.4-27v-0.2c0-15.9,12.6-27.5,33.2-27.5c14.6,0,26,3.9,35.3,11.4L309.2,63c-7.8-5.5-16.4-8.5-24-8.5
		c-5.8,0-8.6,2.5-8.6,5.5v0.2c0,3.9,2.9,5.6,14.8,8.3c19.7,4.3,32,10.7,32,26.7v0.2c0,17.5-13.9,28-34.7,28
		C273.5,123.6,259,118.8,248.5,109.4z"/>
	<path class="st2" d="M335,36.3h36.8c21.7,0,35.7,11.2,35.7,30.2v0.2c0,20.2-15.6,30.9-36.9,30.9h-11.8v24.5H335V36.3z M370,79
		c8.5,0,13.6-4.4,13.6-11.2v-0.2c0-7.4-5.2-11.3-13.7-11.3h-11.2V79H370z"/>
	<path class="st2" d="M418,36.3h23.9v85.8H418V36.3z"/>
	<path class="st2" d="M457.6,36.3h40.6c13.1,0,22.2,3.4,28,9.3c5,4.9,7.6,11.5,7.6,20v0.2c0,13.1-7,21.8-17.7,26.4l20.5,29.9h-27.5
		l-17.3-26h-0.2h-10.2v26h-23.8V36.3z M497.1,77.5c8.1,0,12.8-3.9,12.8-10.2v-0.2c0-6.7-4.9-10.2-12.9-10.2h-15.6v20.6H497.1z"/>
	<path class="st2" d="M542.8,79.4v-0.2c0-24.7,19.9-44.6,46.4-44.6c26.5,0,46.1,19.7,46.1,44.4v0.2c0,24.6-19.9,44.6-46.4,44.6
		S542.8,104.1,542.8,79.4z M611,79.4v-0.2c0-12.4-9-23.2-22.1-23.2c-13,0-21.7,10.5-21.7,22.9v0.2c0,12.4,9,23.2,22,23.2
		C602.3,102.4,611,91.8,611,79.4z"/>
</g>
<g class="st1">
	<path class="st2" d="M261.8,139.3h-6v2.9h5.4v1.7h-5.4v4.3h-1.9v-10.6h7.9V139.3z"/>
	<path class="st2" d="M279.8,145c-0.3,0.7-0.7,1.3-1.2,1.8c-0.5,0.5-1.1,0.9-1.8,1.2c-0.7,0.3-1.4,0.4-2.2,0.4s-1.6-0.1-2.2-0.4
		c-0.7-0.3-1.3-0.7-1.7-1.2c-0.5-0.5-0.9-1.1-1.1-1.7c-0.3-0.7-0.4-1.4-0.4-2.1s0.1-1.5,0.4-2.1c0.3-0.7,0.7-1.3,1.2-1.8
		c0.5-0.5,1.1-0.9,1.8-1.2c0.7-0.3,1.4-0.4,2.2-0.4c0.8,0,1.6,0.1,2.2,0.4c0.7,0.3,1.3,0.7,1.7,1.2s0.9,1.1,1.1,1.7s0.4,1.4,0.4,2.1
		C280.2,143.7,280.1,144.4,279.8,145z M278,141.5c-0.2-0.5-0.4-0.9-0.7-1.2c-0.3-0.3-0.7-0.6-1.1-0.8c-0.4-0.2-0.9-0.3-1.5-0.3
		s-1,0.1-1.5,0.3c-0.4,0.2-0.8,0.5-1.1,0.8c-0.3,0.3-0.6,0.7-0.7,1.2s-0.3,0.9-0.3,1.5c0,0.5,0.1,1,0.3,1.5s0.4,0.9,0.7,1.2
		c0.3,0.3,0.7,0.6,1.1,0.8c0.4,0.2,0.9,0.3,1.5,0.3s1-0.1,1.5-0.3c0.4-0.2,0.8-0.5,1.1-0.8c0.3-0.3,0.6-0.7,0.7-1.2s0.3-0.9,0.3-1.5
		C278.2,142.4,278.2,141.9,278,141.5z"/>
	<path class="st2" d="M295.1,148.2l-2.6-3.7h-2.3v3.7h-1.9v-10.6h4.7c0.6,0,1.2,0.1,1.6,0.2c0.5,0.2,0.9,0.4,1.2,0.7
		c0.3,0.3,0.6,0.6,0.8,1.1c0.2,0.4,0.3,0.9,0.3,1.4c0,0.4-0.1,0.8-0.2,1.2c-0.1,0.3-0.3,0.7-0.5,0.9c-0.2,0.3-0.5,0.5-0.8,0.7
		c-0.3,0.2-0.7,0.3-1,0.4l2.9,4H295.1z M294.4,139.7c-0.4-0.3-0.9-0.5-1.6-0.5h-2.7v3.6h2.7c0.7,0,1.2-0.2,1.6-0.5s0.6-0.8,0.6-1.3
		C295,140.5,294.8,140,294.4,139.7z"/>
	<path class="st2" d="M317,140.9c0.1,0.2,0.2,0.3,0.4,0.4c0.2,0.1,0.4,0.3,0.8,0.4c0.3,0.1,0.7,0.2,1.3,0.3c0.6,0.1,1.1,0.3,1.5,0.5
		c0.4,0.2,0.8,0.4,1.1,0.6s0.5,0.5,0.6,0.9c0.1,0.3,0.2,0.7,0.2,1.2c0,0.5-0.1,1-0.3,1.4c-0.2,0.4-0.4,0.7-0.8,1
		c-0.3,0.3-0.7,0.5-1.2,0.6s-1,0.2-1.5,0.2c-0.8,0-1.6-0.1-2.4-0.4c-0.7-0.3-1.4-0.7-2.1-1.3l1.1-1.3c0.5,0.4,1,0.8,1.6,1
		c0.5,0.2,1.1,0.4,1.8,0.4c0.6,0,1-0.1,1.4-0.4c0.3-0.2,0.5-0.6,0.5-1c0-0.2,0-0.4-0.1-0.5c-0.1-0.2-0.2-0.3-0.4-0.4
		c-0.2-0.1-0.4-0.2-0.7-0.4s-0.7-0.2-1.2-0.3c-0.6-0.1-1.1-0.3-1.5-0.4s-0.8-0.4-1.1-0.6s-0.5-0.5-0.7-0.9s-0.2-0.8-0.2-1.3
		c0-0.5,0.1-0.9,0.3-1.3s0.4-0.7,0.7-1c0.3-0.3,0.7-0.5,1.1-0.6c0.4-0.1,0.9-0.2,1.5-0.2c0.8,0,1.5,0.1,2.1,0.3
		c0.6,0.2,1.2,0.6,1.8,1l-1,1.4c-0.5-0.4-1-0.6-1.4-0.8c-0.5-0.2-1-0.3-1.4-0.3c-0.5,0-1,0.1-1.3,0.4s-0.5,0.5-0.5,0.9
		C316.9,140.6,316.9,140.8,317,140.9z"/>
	<path class="st2" d="M335.1,148.2h-1.9v-8.9h-3.4v-1.7h8.6v1.7h-3.4V148.2z"/>
	<path class="st2" d="M355.1,143.6c0,0.8-0.1,1.5-0.3,2.1s-0.5,1.1-0.9,1.5c-0.4,0.4-0.9,0.7-1.4,0.9c-0.6,0.2-1.2,0.3-1.9,0.3
		c-0.7,0-1.3-0.1-1.9-0.3c-0.6-0.2-1-0.5-1.4-0.9c-0.4-0.4-0.7-0.9-0.9-1.5c-0.2-0.6-0.3-1.3-0.3-2v-6.1h1.9v6c0,1,0.2,1.7,0.7,2.3
		s1.1,0.8,2,0.8c0.8,0,1.5-0.2,2-0.7s0.7-1.2,0.7-2.2v-6.1h1.9V143.6z"/>
	<path class="st2" d="M372.6,145c-0.3,0.7-0.7,1.2-1.2,1.7c-0.5,0.5-1.1,0.8-1.8,1.1s-1.5,0.4-2.3,0.4h-4v-10.6h4
		c0.8,0,1.6,0.1,2.3,0.4c0.7,0.3,1.3,0.6,1.8,1.1c0.5,0.5,0.9,1,1.2,1.7s0.4,1.3,0.4,2.1C373.1,143.7,372.9,144.4,372.6,145z
		 M370.8,141.5c-0.2-0.4-0.4-0.8-0.7-1.2c-0.3-0.3-0.7-0.6-1.2-0.8c-0.5-0.2-1-0.3-1.5-0.3h-2.1v7.3h2.1c0.6,0,1.1-0.1,1.5-0.3
		c0.5-0.2,0.8-0.4,1.2-0.7c0.3-0.3,0.6-0.7,0.7-1.1s0.3-0.9,0.3-1.5C371.1,142.4,371,141.9,370.8,141.5z"/>
	<path class="st2" d="M389,139.3h-6v2.7h5.3v1.7h-5.3v2.8h6.1v1.7h-7.9v-10.6h7.9V139.3z"/>
	<path class="st2" d="M404.4,137.6h1.9v10.6h-1.6l-5.8-7.6v7.6H397v-10.6h1.7l5.7,7.3V137.6z"/>
	<path class="st2" d="M419.3,148.2h-1.9v-8.9H414v-1.7h8.6v1.7h-3.4V148.2z"/>
	<path class="st2" d="M431.8,140.9c0.1,0.2,0.2,0.3,0.4,0.4c0.2,0.1,0.4,0.3,0.8,0.4s0.7,0.2,1.3,0.3c0.6,0.1,1.1,0.3,1.5,0.5
		c0.4,0.2,0.8,0.4,1.1,0.6s0.5,0.5,0.6,0.9c0.1,0.3,0.2,0.7,0.2,1.2c0,0.5-0.1,1-0.3,1.4s-0.4,0.7-0.8,1s-0.7,0.5-1.2,0.6
		s-1,0.2-1.5,0.2c-0.8,0-1.6-0.1-2.4-0.4s-1.4-0.7-2.1-1.3l1.1-1.3c0.5,0.4,1,0.8,1.6,1c0.5,0.2,1.1,0.4,1.8,0.4
		c0.6,0,1-0.1,1.4-0.4c0.3-0.2,0.5-0.6,0.5-1c0-0.2,0-0.4-0.1-0.5c-0.1-0.2-0.2-0.3-0.4-0.4c-0.2-0.1-0.4-0.2-0.7-0.4
		s-0.7-0.2-1.2-0.3c-0.6-0.1-1.1-0.3-1.5-0.4s-0.8-0.4-1.1-0.6c-0.3-0.2-0.5-0.5-0.7-0.9s-0.2-0.8-0.2-1.3c0-0.5,0.1-0.9,0.3-1.3
		s0.4-0.7,0.7-1c0.3-0.3,0.7-0.5,1.1-0.6s0.9-0.2,1.5-0.2c0.8,0,1.5,0.1,2.1,0.3c0.6,0.2,1.2,0.6,1.8,1l-1,1.4
		c-0.5-0.4-1-0.6-1.4-0.8s-1-0.3-1.4-0.3c-0.5,0-1,0.1-1.3,0.4s-0.5,0.5-0.5,0.9C431.7,140.6,431.8,140.8,431.8,140.9z"/>
	<path class="st2" d="M446.1,148.2h-0.8v-2.1h2v1.8c0,0.9-0.2,1.5-0.6,1.9s-1,0.6-1.7,0.7l-0.2-0.8
		C445.7,149.5,446.2,149,446.1,148.2z"/>
	<path class="st2" d="M473.1,138.3c0.6,0.5,0.9,1.2,0.9,2c0,0.3,0,0.6-0.1,0.9c-0.1,0.3-0.2,0.5-0.3,0.7s-0.3,0.4-0.5,0.5
		c-0.2,0.1-0.4,0.3-0.6,0.4c0.3,0.1,0.6,0.2,0.9,0.4c0.3,0.1,0.5,0.3,0.7,0.5c0.2,0.2,0.3,0.4,0.4,0.7c0.1,0.3,0.2,0.6,0.2,1
		c0,0.5-0.1,0.9-0.3,1.3c-0.2,0.4-0.5,0.7-0.8,0.9c-0.3,0.2-0.8,0.4-1.2,0.6s-1,0.2-1.6,0.2h-4.9v-10.6h4.8
		C471.7,137.6,472.5,137.9,473.1,138.3z M471.7,141.7c0.4-0.2,0.5-0.6,0.5-1.1c0-0.4-0.2-0.8-0.5-1c-0.3-0.2-0.8-0.4-1.4-0.4h-2.7
		v2.8h2.5C470.8,142.1,471.3,142,471.7,141.7z M472.3,146.2c0.4-0.2,0.5-0.6,0.5-1.1c0-0.5-0.2-0.8-0.5-1.1
		c-0.4-0.3-0.9-0.4-1.6-0.4h-3v2.9h3.1C471.4,146.6,471.9,146.5,472.3,146.2z"/>
	<path class="st2" d="M487.1,148.2h-1.9V144l-4.2-6.4h2.2l3,4.7l3-4.7h2.1l-4.2,6.4V148.2z"/>
	<path class="st2" d="M510.8,140.9c0.1,0.2,0.2,0.3,0.4,0.4c0.2,0.1,0.4,0.3,0.8,0.4s0.7,0.2,1.3,0.3c0.6,0.1,1.1,0.3,1.5,0.5
		c0.4,0.2,0.8,0.4,1.1,0.6s0.5,0.5,0.6,0.9c0.1,0.3,0.2,0.7,0.2,1.2c0,0.5-0.1,1-0.3,1.4s-0.4,0.7-0.8,1s-0.7,0.5-1.2,0.6
		s-1,0.2-1.5,0.2c-0.8,0-1.6-0.1-2.4-0.4s-1.4-0.7-2.1-1.3l1.1-1.3c0.5,0.4,1,0.8,1.6,1c0.5,0.2,1.1,0.4,1.8,0.4
		c0.6,0,1-0.1,1.4-0.4c0.3-0.2,0.5-0.6,0.5-1c0-0.2,0-0.4-0.1-0.5c-0.1-0.2-0.2-0.3-0.4-0.4c-0.2-0.1-0.4-0.2-0.7-0.4
		s-0.7-0.2-1.2-0.3c-0.6-0.1-1.1-0.3-1.5-0.4s-0.8-0.4-1.1-0.6c-0.3-0.2-0.5-0.5-0.7-0.9s-0.2-0.8-0.2-1.3c0-0.5,0.1-0.9,0.3-1.3
		s0.4-0.7,0.7-1c0.3-0.3,0.7-0.5,1.1-0.6s0.9-0.2,1.5-0.2c0.8,0,1.5,0.1,2.1,0.3c0.6,0.2,1.2,0.6,1.8,1l-1,1.4
		c-0.5-0.4-1-0.6-1.4-0.8s-1-0.3-1.4-0.3c-0.5,0-1,0.1-1.3,0.4s-0.5,0.5-0.5,0.9C510.7,140.6,510.7,140.8,510.8,140.9z"/>
	<path class="st2" d="M528.8,148.2H527v-8.9h-3.4v-1.7h8.6v1.7h-3.4V148.2z"/>
	<path class="st2" d="M548.9,143.6c0,0.8-0.1,1.5-0.3,2.1s-0.5,1.1-0.9,1.5c-0.4,0.4-0.9,0.7-1.4,0.9c-0.6,0.2-1.2,0.3-1.9,0.3
		c-0.7,0-1.3-0.1-1.9-0.3s-1-0.5-1.4-0.9c-0.4-0.4-0.7-0.9-0.9-1.5c-0.2-0.6-0.3-1.3-0.3-2v-6.1h1.9v6c0,1,0.2,1.7,0.7,2.3
		s1.1,0.8,2,0.8c0.8,0,1.5-0.2,2-0.7s0.7-1.2,0.7-2.2v-6.1h1.9V143.6z"/>
	<path class="st2" d="M566.4,145c-0.3,0.7-0.7,1.2-1.2,1.7c-0.5,0.5-1.1,0.8-1.8,1.1c-0.7,0.3-1.5,0.4-2.3,0.4h-4v-10.6h4
		c0.8,0,1.6,0.1,2.3,0.4c0.7,0.3,1.3,0.6,1.8,1.1s0.9,1,1.2,1.7s0.4,1.3,0.4,2.1C566.8,143.7,566.7,144.4,566.4,145z M564.6,141.5
		c-0.2-0.4-0.4-0.8-0.7-1.2s-0.7-0.6-1.2-0.8c-0.5-0.2-1-0.3-1.5-0.3h-2.1v7.3h2.1c0.6,0,1.1-0.1,1.5-0.3c0.5-0.2,0.8-0.4,1.2-0.7
		s0.6-0.7,0.7-1.1s0.3-0.9,0.3-1.5C564.9,142.4,564.8,141.9,564.6,141.5z"/>
	<path class="st2" d="M582.7,139.3h-6v2.7h5.3v1.7h-5.3v2.8h6.1v1.7h-7.9v-10.6h7.9V139.3z"/>
	<path class="st2" d="M598.2,137.6h1.9v10.6h-1.6l-5.8-7.6v7.6h-1.9v-10.6h1.7l5.7,7.3V137.6z"/>
	<path class="st2" d="M613.1,148.2h-1.9v-8.9h-3.4v-1.7h8.6v1.7h-3.4V148.2z"/>
	<path class="st2" d="M625.6,140.9c0.1,0.2,0.2,0.3,0.4,0.4c0.2,0.1,0.4,0.3,0.8,0.4c0.3,0.1,0.7,0.2,1.3,0.3
		c0.6,0.1,1.1,0.3,1.5,0.5c0.4,0.2,0.8,0.4,1.1,0.6s0.5,0.5,0.6,0.9c0.1,0.3,0.2,0.7,0.2,1.2c0,0.5-0.1,1-0.3,1.4
		c-0.2,0.4-0.4,0.7-0.8,1s-0.7,0.5-1.2,0.6s-1,0.2-1.5,0.2c-0.8,0-1.6-0.1-2.4-0.4s-1.4-0.7-2.1-1.3l1.1-1.3c0.5,0.4,1,0.8,1.6,1
		c0.5,0.2,1.1,0.4,1.8,0.4c0.6,0,1-0.1,1.4-0.4c0.3-0.2,0.5-0.6,0.5-1c0-0.2,0-0.4-0.1-0.5c-0.1-0.2-0.2-0.3-0.4-0.4
		c-0.2-0.1-0.4-0.2-0.7-0.4s-0.7-0.2-1.2-0.3c-0.6-0.1-1.1-0.3-1.5-0.4s-0.8-0.4-1.1-0.6s-0.5-0.5-0.7-0.9c-0.2-0.3-0.2-0.8-0.2-1.3
		c0-0.5,0.1-0.9,0.3-1.3c0.2-0.4,0.4-0.7,0.7-1s0.7-0.5,1.1-0.6s0.9-0.2,1.5-0.2c0.8,0,1.5,0.1,2.1,0.3c0.6,0.2,1.2,0.6,1.8,1
		l-1,1.4c-0.5-0.4-1-0.6-1.4-0.8c-0.5-0.2-1-0.3-1.4-0.3c-0.5,0-1,0.1-1.3,0.4s-0.5,0.5-0.5,0.9
		C625.5,140.6,625.6,140.8,625.6,140.9z"/>
</g>
</svg>
